<svg xmlns="http://www.w3.org/2000/svg" viewBox="1034.3 466 38 38">
  <defs>
    <style>
      .cls-1 {
        fill: #1d53ff;
      }
    </style>
  </defs>
  <path id="facebook_1_" data-name="facebook (1)" class="cls-1" d="M32.881,0H5.123A5.121,5.121,0,0,0,0,5.121V32.879A5.121,5.121,0,0,0,5.123,38h13.69l.023-13.579H15.308a.832.832,0,0,1-.832-.829l-.017-4.377a.832.832,0,0,1,.832-.836h3.521V14.149c0-4.908,3-7.581,7.376-7.581h3.593a.832.832,0,0,1,.832.832v3.691a.832.832,0,0,1-.832.832h-2.2c-2.381,0-2.842,1.131-2.842,2.792v3.662h5.232a.832.832,0,0,1,.827.93l-.519,4.377a.832.832,0,0,1-.827.734h-4.69L24.735,38h8.146A5.12,5.12,0,0,0,38,32.88V5.121A5.121,5.121,0,0,0,32.881,0Z" transform="translate(1034.298 466)"/>
</svg>
