<svg xmlns="http://www.w3.org/2000/svg" viewBox="1265 89.856 45.001 62.144">
  <defs>
    <style>
      .cls-1 {
        fill: #e69f5f;
      }

      .cls-2 {
        fill: #e09156;
      }

      .cls-3 {
        fill: #ffd7a3;
      }

      .cls-4 {
        fill: #fdc88e;
      }

      .cls-5 {
        fill: #ffe1b2;
      }

      .cls-6 {
        fill: #623f33;
      }

      .cls-7 {
        fill: #ff6473;
      }

      .cls-8 {
        fill: #f05467;
      }

      .cls-9 {
        fill: #d4445a;
      }
    </style>
  </defs>
  <g id="girl" transform="translate(1201.001 89.856)">
    <g id="Groupe_2" data-name="Groupe 2" transform="translate(63.999)">
      <path id="Tracé_14" data-name="Tracé 14" class="cls-1" d="M109,53.573s-7.889,3.214-22.5,3.214S64,53.573,64,53.573l2.834-35.42A19.726,19.726,0,0,1,86.5,0H86.5a19.725,19.725,0,0,1,19.663,18.152Z" transform="translate(-63.999)"/>
    </g>
    <g id="Groupe_3" data-name="Groupe 3" transform="translate(63.999)">
      <path id="Tracé_15" data-name="Tracé 15" class="cls-2" d="M92.234.854A19.7,19.7,0,0,0,86.5,0H86.5A19.726,19.726,0,0,0,66.833,18.152L64,53.573a49.581,49.581,0,0,0,11.179,2.514Z" transform="translate(-63.999)"/>
    </g>
    <path id="Tracé_16" data-name="Tracé 16" class="cls-3" d="M120.979,131.66l-.2-.7a.706.706,0,0,0-.767-.5l-.714-5.358a5.357,5.357,0,0,0-2.914-4.084l-2.308-1.154a.677.677,0,0,0-.906.307l-4.567-1.681a2.143,2.143,0,0,1-1.465-2.033V113l4.615-1.923a6.428,6.428,0,0,0,3.956-5.934v-1.071a3.214,3.214,0,1,0,0-6.429V95.5c0-2.959-2.4-7.5-5.357-7.5H91.06C88.1,88,85.7,92.541,85.7,95.5v2.143a3.214,3.214,0,1,0,0,6.429v1.071a6.429,6.429,0,0,0,3.956,5.934L94.275,113v3.456a2.143,2.143,0,0,1-1.465,2.033l-4.567,1.68a.673.673,0,0,0-.9-.308l-2.1,1.052a5.471,5.471,0,0,0-3.121,4.187l-.714,5.358a.707.707,0,0,0-.767.5l-.2.7a.707.707,0,0,0,.481.877l1.58.461v3.217a2.143,2.143,0,0,0,2.143,2.143h32.144a2.143,2.143,0,0,0,2.143-2.143V133l1.58-.461A.707.707,0,0,0,120.979,131.66Z" transform="translate(-14.204 -76.214)"/>
    <path id="Tracé_17" data-name="Tracé 17" class="cls-4" d="M190.144,274.667H177.286v3.456a2.142,2.142,0,0,1-1.038,1.835A14.585,14.585,0,0,0,190.144,274.667Z" transform="translate(-97.215 -237.88)"/>
    <path id="Tracé_18" data-name="Tracé 18" class="cls-5" d="M129.215,97.643V95.5c0-2.959-2.4-7.5-5.357-7.5H104.572c-2.959,0-5.357,4.541-5.357,7.5v2.143a3.214,3.214,0,1,0,0,6.429v1.071a6.429,6.429,0,0,0,3.956,5.934l6.923,2.885a10.714,10.714,0,0,0,4.121.824h0a10.716,10.716,0,0,0,4.121-.824l6.923-2.885a6.428,6.428,0,0,0,3.956-5.934v-1.071a3.214,3.214,0,1,0,0-6.429Z" transform="translate(-27.715 -76.214)"/>
    <g id="Groupe_4" data-name="Groupe 4" transform="translate(92.928 22.5)">
      <path id="Tracé_19" data-name="Tracé 19" class="cls-6" d="M281.071,171.214h0A1.075,1.075,0,0,1,280,170.143v-1.071A1.075,1.075,0,0,1,281.071,168h0a1.075,1.075,0,0,1,1.071,1.071v1.071A1.075,1.075,0,0,1,281.071,171.214Z" transform="translate(-280 -168)"/>
    </g>
    <g id="Groupe_7" data-name="Groupe 7" transform="translate(68.285 15.268)">
      <path id="Tracé_21" data-name="Tracé 21" class="cls-3" d="M104.839,131.371a5.023,5.023,0,0,1-1.339-3.432v-4.61c5.843-.443,13.732-4.313,18.459-8.017L120.643,114a43.674,43.674,0,0,1-21.429,6.161h0a3.214,3.214,0,0,0,0,6.429v1.071a6.429,6.429,0,0,0,3.956,5.934l6.923,2.885a10.732,10.732,0,0,0,1.035.368A44.712,44.712,0,0,1,104.839,131.371Z" transform="translate(-96 -113.996)"/>
    </g>
    <g id="Groupe_8" data-name="Groupe 8" transform="translate(67.038 43.576)">
      <path id="Tracé_22" data-name="Tracé 22" class="cls-7" d="M125.595,337.09l-.856-6.419a5.357,5.357,0,0,0-2.914-4.084l-2.308-1.154a.683.683,0,0,0-.962.45,12.859,12.859,0,0,1-24.812,0,.679.679,0,0,0-.957-.448l-2.1,1.052a5.471,5.471,0,0,0-3.121,4.187l-.872,6.541c2.831.975,7.676,2.431,7.676,2.431v4.286h23.572v-4.286Z" transform="translate(-86.687 -325.36)"/>
    </g>
    <g id="Groupe_9" data-name="Groupe 9" transform="translate(67.06 47.294)">
      <path id="Tracé_23" data-name="Tracé 23" class="cls-8" d="M94.483,363.362a6.417,6.417,0,0,0-1.259-3.53l-5.03-6.707a5.221,5.221,0,0,0-.488,1.592l-.849,6.37Z" transform="translate(-86.856 -353.125)"/>
    </g>
    <g id="Groupe_10" data-name="Groupe 10" transform="translate(66.195 54.237)">
      <path id="Tracé_24" data-name="Tracé 24" class="cls-9" d="M80.428,406.173a.707.707,0,0,0,.481.877l8.009,2.336v-.8a6.4,6.4,0,0,0-.2-1.488l-7.213-2.1a.707.707,0,0,0-.876.481Z" transform="translate(-80.399 -404.965)"/>
    </g>
    <g id="Groupe_11" data-name="Groupe 11" transform="translate(98.312 47.294)">
      <path id="Tracé_25" data-name="Tracé 25" class="cls-8" d="M320.2,363.362a6.417,6.417,0,0,1,1.259-3.53l5.03-6.707a5.221,5.221,0,0,1,.488,1.592l.849,6.37Z" transform="translate(-320.198 -353.125)"/>
    </g>
    <g id="Groupe_12" data-name="Groupe 12" transform="translate(98.286 54.237)">
      <path id="Tracé_26" data-name="Tracé 26" class="cls-9" d="M328.49,406.173a.707.707,0,0,1-.481.877L320,409.386v-.8a6.4,6.4,0,0,1,.2-1.488l7.213-2.1a.707.707,0,0,1,.876.481Z" transform="translate(-320 -404.965)"/>
    </g>
    <g id="Groupe_13" data-name="Groupe 13" transform="translate(77.928 22.5)">
      <path id="Tracé_27" data-name="Tracé 27" class="cls-6" d="M169.07,171.214h0A1.075,1.075,0,0,1,168,170.143v-1.071A1.075,1.075,0,0,1,169.07,168h0a1.075,1.075,0,0,1,1.071,1.071v1.071A1.075,1.075,0,0,1,169.07,171.214Z" transform="translate(-167.999 -168)"/>
    </g>
    <path id="Tracé_28" data-name="Tracé 28" class="cls-1" d="M103.729,30.717l.036,7.109a52.629,52.629,0,0,0,24-6,75.483,75.483,0,0,1-7.925,7.337s9.54-3.793,14.884-8.5h0A12.656,12.656,0,0,0,122.064,18h-5.679A12.656,12.656,0,0,0,103.729,30.717Z" transform="translate(-34.409 -15.586)"/>
    <path id="Tracé_29" data-name="Tracé 29" class="cls-2" d="M125.969,18.612A12.642,12.642,0,0,0,122.064,18h-5.679a12.656,12.656,0,0,0-12.656,12.721l.036,7.109a49.417,49.417,0,0,0,8.375-.721C121.82,29.693,125.954,18.654,125.969,18.612Z" transform="translate(-34.409 -15.587)"/>
  </g>
</svg>
