<svg xmlns="http://www.w3.org/2000/svg" viewBox="21.89 878.4 28.36 25.734">
  <defs>
    <style>
      .cls-1 {
        fill: #1d1d1b;
      }
    </style>
  </defs>
  <g id="history" transform="translate(21.89 875.085)">
    <g id="Groupe_25" data-name="Groupe 25" transform="translate(0 3.315)">
      <path id="Tracé_57" data-name="Tracé 57" class="cls-1" d="M15.492,3.315A12.873,12.873,0,0,0,2.625,16.146a14.9,14.9,0,0,0,.462,3.993l-1.733-1.01a.9.9,0,1,0-.907,1.555l4.062,2.368c.008,0,.017.006.025.01a.889.889,0,0,0,.134.056.962.962,0,0,0,.094.03.931.931,0,0,0,.117.015c.028,0,.055.011.083.011s.03-.005.046-.006.028,0,.043,0,.042-.012.064-.015a.924.924,0,0,0,.126-.03.882.882,0,0,0,.1-.042.852.852,0,0,0,.108-.061.822.822,0,0,0,.179-.154.823.823,0,0,0,.071-.092c.012-.018.028-.031.039-.049s.008-.03.015-.044.031-.046.042-.072l1.616-4a.9.9,0,1,0-1.669-.674l-.83,2.054a13.336,13.336,0,0,1-.489-3.807A11.066,11.066,0,1,1,15.492,27.249a.9.9,0,1,0,0,1.8,12.867,12.867,0,1,0,0-25.734Z" transform="translate(0 -3.315)"/>
      <path id="Tracé_58" data-name="Tracé 58" class="cls-1" d="M26.757,26.89a.891.891,0,0,0,.283.058c.02,0,.04.012.06.012a.891.891,0,0,0,.305-.06.792.792,0,0,0,.079-.037.9.9,0,0,0,.207-.137c.014-.012.032-.017.046-.03l5.621-5.621A.9.9,0,1,0,32.085,19.8L26.89,25l-4.662-1.953a.9.9,0,0,0-.7,1.661l5.22,2.186h.005Z" transform="translate(-11.61 -12.292)"/>
    </g>
  </g>
</svg>
