<svg xmlns="http://www.w3.org/2000/svg" viewBox="21.488 817.4 27.812 24.792">
  <g id="home_1_" data-name="home (1)" transform="translate(21.488 789.603)">
    <g id="Groupe_22" data-name="Groupe 22" transform="translate(-0.001 27.798)">
      <g id="Groupe_21" data-name="Groupe 21" transform="translate(0)">
        <path id="Tracé_55" data-name="Tracé 55" d="M27.516,37.59,14.332,27.937a.722.722,0,0,0-.854,0L.3,37.59a.723.723,0,1,0,.854,1.166l12.757-9.34,12.757,9.34a.723.723,0,0,0,.854-1.166Z" transform="translate(0.001 -27.798)"/>
      </g>
    </g>
    <g id="Groupe_24" data-name="Groupe 24" transform="translate(3.066 38.919)">
      <g id="Groupe_23" data-name="Groupe 23">
        <path id="Tracé_56" data-name="Tracé 56" d="M77.409,232.543a.723.723,0,0,0-.723.723v11.5H70.905v-6.279a3.613,3.613,0,1,0-7.227,0v6.279H57.9v-11.5a.723.723,0,0,0-1.445,0v12.225a.723.723,0,0,0,.723.723H64.4a.722.722,0,0,0,.72-.666.544.544,0,0,0,0-.056v-7a2.168,2.168,0,0,1,4.336,0v7a.53.53,0,0,0,0,.056.722.722,0,0,0,.72.667h7.226a.723.723,0,0,0,.723-.723V233.266A.723.723,0,0,0,77.409,232.543Z" transform="translate(-56.452 -232.543)"/>
      </g>
    </g>
  </g>
</svg>
