<svg xmlns="http://www.w3.org/2000/svg" viewBox="21.89 934.89 28.11 28.11">
  <g id="info_1_" data-name="info (1)" transform="translate(21.89 934.89)">
    <g id="Groupe_26" data-name="Groupe 26">
      <path id="Tracé_60" data-name="Tracé 60" d="M14.055,0A14.055,14.055,0,1,0,28.11,14.055,14.071,14.071,0,0,0,14.055,0Zm0,26.381A12.325,12.325,0,1,1,26.381,14.055,12.339,12.339,0,0,1,14.055,26.381Z"/>
      <circle id="Ellipse_3" data-name="Ellipse 3" cx="1.447" cy="1.447" r="1.447" transform="translate(12.833 7.004)"/>
      <path id="Tracé_61" data-name="Tracé 61" d="M31,28.342a.865.865,0,0,0-.865.865v7.352a.865.865,0,0,0,1.73,0V29.207A.865.865,0,0,0,31,28.342Z" transform="translate(-17.104 -16.085)"/>
    </g>
  </g>
</svg>
