<svg xmlns="http://www.w3.org/2000/svg" viewBox="1023.961 561.6 24.145 24.129"><defs><style>.cls-1{fill:#fff}</style></defs><g id="phone-receiver" transform="translate(1023.961 561.412)"><g id="Groupe_1" data-name="Groupe 1" transform="translate(0 0.188)"><path id="Tracé_1" d="M24.133,19.23a1.167,1.167,0,0,1-.358,1.022l-3.4,3.374a1.913,1.913,0,0,1-.6.435,2.482,2.482,0,0,1-.728.23q-.026,0-.154.013t-.332.013a11.783,11.783,0,0,1-1.572-.166,11.938,11.938,0,0,1-2.658-.818,22.313,22.313,0,0,1-3.566-1.955A26.585,26.585,0,0,1,6.522,17.8a28.009,28.009,0,0,1-2.965-3.374,24.039,24.039,0,0,1-1.891-2.978A16.038,16.038,0,0,1,.592,8.968,13.154,13.154,0,0,1,.107,7.051,6.331,6.331,0,0,1,0,5.786q.026-.46.026-.511a2.484,2.484,0,0,1,.23-.728,1.915,1.915,0,0,1,.435-.6l3.4-3.4A1.126,1.126,0,0,1,4.912.188.954.954,0,0,1,5.5.38a1.777,1.777,0,0,1,.435.473L8.669,6.041a1.244,1.244,0,0,1,.128.895,1.593,1.593,0,0,1-.435.818L7.11,9.006a.426.426,0,0,0-.089.166.631.631,0,0,0-.038.192,4.615,4.615,0,0,0,.46,1.227,11.262,11.262,0,0,0,.946,1.5A16.6,16.6,0,0,0,10.2,14.118a16.931,16.931,0,0,0,2.045,1.828,11.809,11.809,0,0,0,1.5.958,3.974,3.974,0,0,0,.92.371l.319.064a.609.609,0,0,0,.166-.038.427.427,0,0,0,.166-.09l1.457-1.483a1.566,1.566,0,0,1,1.074-.409,1.336,1.336,0,0,1,.69.153h.026l4.933,2.914A1.286,1.286,0,0,1,24.133,19.23Z" class="cls-1" data-name="Tracé 1" transform="translate(0 -0.188)"/></g></g></svg>