<svg xmlns="http://www.w3.org/2000/svg" viewBox="232.431 563.297 37.048 36.459"><defs><style>.cls-1{fill:#fff}</style></defs><g id="qr-code-scan" transform="translate(232.431 562.935)"><g id="Groupe_4" data-name="Groupe 4" transform="translate(0 0.362)"><path id="Tracé_44" d="M7.79.362H1.942A1.934,1.934,0,0,0,0,2.3v5.85a1.95,1.95,0,0,0,1.942,1.958H7.791A1.961,1.961,0,0,0,9.745,8.151V2.3A1.945,1.945,0,0,0,7.79.362Zm.2,7.756a.231.231,0,0,1-.232.231H1.916a.231.231,0,0,1-.231-.231V2.279a.231.231,0,0,1,.231-.231H7.754a.231.231,0,0,1,.232.231V8.118Z" class="cls-1" data-name="Tracé 44" transform="translate(0 -0.362)"/><rect id="Rectangle_19" width="3.737" height="3.737" class="cls-1" data-name="Rectangle 19" transform="translate(3.003 3.004)"/><path id="Tracé_45" d="M7.79,19.072H1.942A1.931,1.931,0,0,0,0,21.007v5.851a1.954,1.954,0,0,0,1.942,1.962H7.791a1.965,1.965,0,0,0,1.954-1.962V21.007A1.942,1.942,0,0,0,7.79,19.072Zm.2,7.781a.2.2,0,0,1-.219.207H1.933a.227.227,0,0,1-.248-.207V21.018a.272.272,0,0,1,.248-.261H7.767a.249.249,0,0,1,.219.261v5.835Z" class="cls-1" data-name="Tracé 45" transform="translate(0 -3.831)"/><rect id="Rectangle_20" width="3.737" height="3.737" class="cls-1" data-name="Rectangle 20" transform="translate(3.003 18.246)"/><path id="Tracé_46" d="M20.551,10.108H26.4a1.97,1.97,0,0,0,1.964-1.958V2.3A1.954,1.954,0,0,0,26.4.362h-5.85A1.926,1.926,0,0,0,18.619,2.3v5.85A1.942,1.942,0,0,0,20.551,10.108ZM20.3,2.279a.231.231,0,0,1,.231-.231h5.839a.231.231,0,0,1,.231.231V8.118a.231.231,0,0,1-.231.231H20.536a.231.231,0,0,1-.231-.231Z" class="cls-1" data-name="Tracé 46" transform="translate(-3.452 -0.362)"/><rect id="Rectangle_21" width="3.809" height="3.737" class="cls-1" data-name="Rectangle 21" transform="translate(18.099 3.004)"/><path id="Tracé_47" d="M3.886,13.675H2.6a.531.531,0,0,0-.527.516v1.29a.552.552,0,0,0,.527.54H3.827v.016a.474.474,0,0,0,.48.5H7.2v.061a.542.542,0,0,0,.53.525h1.29a.536.536,0,0,0,.525-.525v-1.25a.512.512,0,0,0-.525-.5H8.37v-.657a.512.512,0,0,0-.506-.516H7.171a.5.5,0,0,0-.486.516v.657H4.413v-.657A.53.53,0,0,0,3.886,13.675Z" class="cls-1" data-name="Tracé 47" transform="translate(-0.384 -2.83)"/><path id="Tracé_48" d="M14.124,6.058V8.915a.484.484,0,0,0,.475.513h1.847a.537.537,0,0,0,.537-.513V7.626a.563.563,0,0,0-.537-.543H15.81V3.127h.078a.5.5,0,0,0,.508-.5V1.936a.5.5,0,0,0-.508-.494H13.446a.484.484,0,0,0-.494.494v.692a.486.486,0,0,0,.494.5h.679V4.959h-.679a.5.5,0,0,0-.494.518v.1a.475.475,0,0,0,.494.485Z" class="cls-1" data-name="Tracé 48" transform="translate(-2.401 -0.562)"/><path id="Tracé_49" d="M15.584,14V12.744a.509.509,0,0,0-.509-.509H13.821a.509.509,0,0,0-.509.509V14a.509.509,0,0,0,.509.509h1.254A.509.509,0,0,0,15.584,14Z" class="cls-1" data-name="Tracé 49" transform="translate(-2.468 -2.563)"/><path id="Tracé_50" d="M18.709,14.935a.549.549,0,0,0-.539.524v.5a11.764,11.764,0,0,1,1.4-1.027h-.859Z" class="cls-1" data-name="Tracé 50" transform="translate(-3.368 -3.064)"/><path id="Tracé_51" d="M17.388,16.374H15.195a.526.526,0,0,0-.533.505v2.937a13,13,0,0,1,2.172-2.935A6.67,6.67,0,0,1,17.388,16.374Z" class="cls-1" data-name="Tracé 51" transform="translate(-2.718 -3.33)"/><path id="Tracé_52" d="M39.128,35.452l-4.8-4.795a10.485,10.485,0,1,0-3.315,3.315l4.8,4.8a2.345,2.345,0,1,0,3.315-3.317ZM30.86,30.51a7.658,7.658,0,1,1,0-10.83A7.665,7.665,0,0,1,30.86,30.51Z" class="cls-1" data-name="Tracé 52" transform="translate(-2.775 -3.005)"/></g></g></svg>