<svg xmlns="http://www.w3.org/2000/svg" viewBox="40.391 96.521 278.778 249.574">
  <defs>
    <style>
      .cls-1 {
        fill: #ce9965;
      }

      .cls-2 {
        fill: #986c48;
      }

      .cls-3 {
        fill: #ffd16c;
      }

      .cls-4 {
        fill: #604530;
      }

      .cls-5 {
        fill: #cbb292;
      }

      .cls-6 {
        fill: #e4e7e7;
      }

      .cls-7 {
        fill: #3f5e6d;
      }

      .cls-8 {
        fill: #4e6b78;
      }

      .cls-9 {
        fill: #bfc3c5;
      }

      .cls-10 {
        fill: #ff7816;
      }

      .cls-11 {
        fill: #ff4b00;
      }

      .cls-12 {
        fill: #ffd400;
      }

      .cls-13 {
        fill: #fed2a4;
      }

      .cls-14 {
        fill: #5a5a5a;
      }

      .cls-15 {
        fill: #ffbd86;
      }

      .cls-16 {
        fill: #ececf1;
      }

      .cls-17 {
        fill: #e2e2e7;
      }

      .cls-18 {
        fill: #f58c46;
      }

      .cls-19 {
        fill: #eba34b;
      }

      .cls-20 {
        fill: #ebc9a0;
      }

      .cls-21 {
        fill: #4b3f4e;
      }

      .cls-22 {
        fill: #d99365;
      }

      .cls-23 {
        fill: #6e4848;
      }

      .cls-24 {
        fill: #ff526c;
      }

      .cls-25 {
        fill: #ffdcbf;
      }

      .cls-26 {
        fill: #fcbb8d;
      }

      .cls-27 {
        fill: #374266;
      }

      .cls-28 {
        fill: #f2f2f7;
      }

      .cls-29 {
        fill: #65a3e6;
      }

      .cls-30 {
        fill: #495b94;
      }

      .cls-31 {
        fill: #1b79cf;
      }
    </style>
  </defs>
  <g id="Header" transform="translate(17.391 16.035)">
    <g id="briefcase" transform="matrix(0.809, -0.588, 0.588, 0.809, 207.499, 103.359)">
      <path id="Tracé_1" data-name="Tracé 1" class="cls-1" d="M45.5,0H6.379A6.434,6.434,0,0,0,0,6.488v8.653l5.35,1.877A54.313,54.313,0,0,0,19.679,19.94v-7.2H32.2v7.191a60.271,60.271,0,0,0,14.329-2.91l5.35-1.876V6.488A6.434,6.434,0,0,0,45.5,0Z" transform="translate(0 10.007)"/>
      <path id="Tracé_2" data-name="Tracé 2" class="cls-2" d="M32.2,7.191V0H19.679V7.2A54.313,54.313,0,0,1,5.35,4.281L0,2.405l.894.314V27.992A2.011,2.011,0,0,0,2.888,30.02h46.1a2.011,2.011,0,0,0,1.995-2.028V2.719l.894-.314L46.53,4.282A60.224,60.224,0,0,1,32.2,7.191Z" transform="translate(0 22.742)"/>
      <rect id="Rectangle_3" data-name="Rectangle 3" class="cls-3" width="7.156" height="2.729" transform="translate(14.312 7.278)"/>
      <rect id="Rectangle_4" data-name="Rectangle 4" class="cls-3" width="7.156" height="2.729" transform="translate(30.412 7.278)"/>
      <path id="Tracé_3" data-name="Tracé 3" class="cls-4" d="M16.1,4.952V7.278h3.578V5.357A5.312,5.312,0,0,0,14.411,0H5.268A5.312,5.312,0,0,0,0,5.357v1.92H3.578V4.952A1.4,1.4,0,0,1,5.509,3.639a11.164,11.164,0,0,0,8.66,0A1.4,1.4,0,0,1,16.1,4.952Z" transform="translate(16.101 0)"/>
      <rect id="Rectangle_5" data-name="Rectangle 5" class="cls-3" width="8.945" height="3.639" transform="translate(37.568 44.575)"/>
      <path id="Tracé_4" data-name="Tracé 4" class="cls-4" d="M4.472,5.458H2.683L0,2.729V0H7.156V2.729Z" transform="translate(22.362 33.659)"/>
      <rect id="Rectangle_6" data-name="Rectangle 6" class="cls-4" width="7.156" height="12.736" transform="translate(22.362 10.007)"/>
      <rect id="Rectangle_7" data-name="Rectangle 7" class="cls-3" width="12.523" height="10.916" transform="translate(19.679 22.742)"/>
      <rect id="Rectangle_8" data-name="Rectangle 8" class="cls-4" width="7.156" height="8.187" transform="translate(22.362 22.742)"/>
      <path id="Tracé_5" data-name="Tracé 5" class="cls-5" d="M.894,5.458A.9.9,0,0,1,0,4.548V.91A.9.9,0,0,1,.894,0a.9.9,0,0,1,.894.91V4.548A.9.9,0,0,1,.894,5.458Z" transform="translate(25.045 26.381)"/>
    </g>
    <g id="iphone" transform="translate(23 263.279) rotate(-21)">
      <path id="Tracé_6" data-name="Tracé 6" class="cls-6" d="M4.852,0H29.111a4.713,4.713,0,0,1,4.852,4.529V53.441a4.713,4.713,0,0,1-4.852,4.529H4.852A4.713,4.713,0,0,1,0,53.441V4.529A4.713,4.713,0,0,1,4.852,0Z"/>
      <path id="Tracé_7" data-name="Tracé 7" class="cls-7" d="M.97,0h26.2a.943.943,0,0,1,.97.906V40.76a.943.943,0,0,1-.97.906H.97A.943.943,0,0,1,0,40.76V.906A.942.942,0,0,1,.97,0Z" transform="translate(2.911 8.152)"/>
      <path id="Tracé_8" data-name="Tracé 8" class="cls-8" d="M9.39,3.759A2.98,2.98,0,0,0,7.207,2.672c-1.019,0-1.455.453-2.135.453-.728,0-1.261-.453-2.183-.453A2.965,2.965,0,0,0,.512,4.031c-.825,1.178-.679,3.442.631,5.344.485.679,1.116,1.449,1.941,1.449.728,0,.97-.453,1.941-.453,1.019,0,1.213.453,1.941.453.825,0,1.5-.86,1.989-1.54a5.861,5.861,0,0,0,.728-1.313A2.277,2.277,0,0,1,9.39,3.759ZM6.722,1.812A2.37,2.37,0,0,0,7.3,0a2.832,2.832,0,0,0-1.8.906,2.151,2.151,0,0,0-.582,1.766A2.4,2.4,0,0,0,6.722,1.812Z" transform="translate(12.103 22.69)"/>
      <path id="Tracé_9" data-name="Tracé 9" class="cls-9" d="M3.882,48.459a2.27,2.27,0,1,1,0,4.529,2.27,2.27,0,1,1,0-4.529ZM.97,0H6.792a.943.943,0,0,1,.97.906.943.943,0,0,1-.97.906H.97A.943.943,0,0,1,0,.906.943.943,0,0,1,.97,0Z" transform="translate(13.1 3.17)"/>
    </g>
    <g id="book" transform="translate(54.918 80.486) rotate(17)">
      <path id="Tracé_10" data-name="Tracé 10" class="cls-10" d="M30.871,1.5V45.23L16.722,46.52,2.573,47.781,0,27.118,2.573,0H7.718l3.859,3.632L15.435,0H29.585A1.392,1.392,0,0,1,30.871,1.5Zm0,0" transform="translate(2.573 0)"/>
      <path id="Tracé_11" data-name="Tracé 11" class="cls-11" d="M14.149,1.5V45.23L0,46.52V0H12.863A1.392,1.392,0,0,1,14.149,1.5Zm0,0" transform="translate(19.294 0)"/>
      <path id="Tracé_12" data-name="Tracé 12" class="cls-12" d="M.794,15a1.154,1.154,0,0,0,1.4-.325l1.663-1.941L5.522,14.67a1.155,1.155,0,0,0,1.4.326,1.521,1.521,0,0,0,.794-1.387V0H0V13.609A1.52,1.52,0,0,0,.794,15Zm0,0" transform="translate(10.29 0)"/>
      <path id="Tracé_13" data-name="Tracé 13" class="cls-13" d="M16.722,3a1.392,1.392,0,0,1-1.286-1.5A1.392,1.392,0,0,0,14.149,0H3.859A1.392,1.392,0,0,0,2.573,1.5,1.392,1.392,0,0,1,1.286,3,1.392,1.392,0,0,0,0,4.5v6a1.392,1.392,0,0,0,1.286,1.5,1.392,1.392,0,0,1,1.286,1.5,1.392,1.392,0,0,0,1.286,1.5h10.29a1.392,1.392,0,0,0,1.286-1.5,1.392,1.392,0,0,1,1.286-1.5,1.392,1.392,0,0,0,1.286-1.5v-6A1.392,1.392,0,0,0,16.722,3Zm0,0" transform="translate(10.29 18.112)"/>
      <path id="Tracé_14" data-name="Tracé 14" class="cls-14" d="M3.859,0C1.723,0,0,2.011,0,4.5V48.232l5.145-.462V0Zm0,0" transform="translate(0 0)"/>
      <path id="Tracé_15" data-name="Tracé 15" class="cls-15" d="M9,4.5v6a1.392,1.392,0,0,1-1.286,1.5,1.392,1.392,0,0,0-1.286,1.5,1.392,1.392,0,0,1-1.286,1.5H0V0H5.145A1.392,1.392,0,0,1,6.431,1.5,1.392,1.392,0,0,0,7.718,3,1.392,1.392,0,0,1,9,4.5Zm0,0" transform="translate(19.294 18.112)"/>
      <path id="Tracé_16" data-name="Tracé 16" class="cls-16" d="M33.443,0V4.5A1.392,1.392,0,0,1,32.157,6H2.573A2.821,2.821,0,0,1,0,3,2.821,2.821,0,0,1,2.573,0Zm0,0" transform="translate(0 45.23)"/>
      <path id="Tracé_17" data-name="Tracé 17" class="cls-17" d="M14.149,0V4.5A1.392,1.392,0,0,1,12.863,6H0V0Zm0,0" transform="translate(19.294 45.23)"/>
    </g>
    <g id="dog" transform="translate(224.366 285.937) rotate(-30)">
      <path id="Tracé_18" data-name="Tracé 18" class="cls-18" d="M5.882.081a.413.413,0,0,1,.578.57C4.466,3.891.721,11.558,7.214,15.727L5.17,19.705C3.271,18.464,0,15.529,0,11.1A14.978,14.978,0,0,1,5.882.081Z" transform="translate(0 2.967)"/>
      <path id="Tracé_19" data-name="Tracé 19" class="cls-19" d="M2.513,34.194A7.317,7.317,0,0,0,3.8,30.034V24.4a8.938,8.938,0,0,1,7.8-9.049L31.418,13.37a3.81,3.81,0,0,0,2.74-1.635l.873-1.252.1-.072a6.519,6.519,0,0,1,.35-4.223C36.392,4.2,39.66,0,42.936,0h2.581a5.624,5.624,0,0,1,3.955,1.648l2.421,2.394,6.026,1.774a1.014,1.014,0,0,1,.69,1.162l-.364,1.8A1.959,1.959,0,0,1,56.582,10.4l-.2,1.326A2.025,2.025,0,0,1,55.037,13.3a21.823,21.823,0,0,1-6.868,1.1.87.87,0,0,0-.882.841,25.311,25.311,0,0,1-1.014,5.929L45.228,24.2a54.583,54.583,0,0,1-3.254,6.745A34.991,34.991,0,0,0,37.465,46.48l2.784,1.462a2.034,2.034,0,0,1,1.063,1.808v.772a.987.987,0,0,1-.962,1.01H35.389a1.964,1.964,0,0,1-1.917-1.854L32.225,33.862c-5.133,1.49-13.55.445-17.608-1.618a17.726,17.726,0,0,1-9.854,7.331v6.9l3.6,1.513a2.023,2.023,0,0,1,1.209,1.876v.653a.987.987,0,0,1-.962,1.01H3.536a1.956,1.956,0,0,1-1.9-1.725L.01,38.3a1.05,1.05,0,0,1,.174-.742Z" transform="translate(1.009)"/>
      <path id="Tracé_20" data-name="Tracé 20" class="cls-20" d="M6.173,10.84,5.129,13.876A54.582,54.582,0,0,1,1.875,20.62,34.666,34.666,0,0,0,0,24.508c.756-3.327,1.937-7.129,2.6-9.382C4.04,10.2,3.638,4.768,3.739,2.5,3.859-.22,6.985-.136,7.867.117l8.468.932-.054.351a2.025,2.025,0,0,1-1.342,1.575,21.827,21.827,0,0,1-6.868,1.1.87.87,0,0,0-.882.841A25.31,25.31,0,0,1,6.173,10.84Z" transform="translate(41.107 10.324)"/>
      <path id="Tracé_21" data-name="Tracé 21" class="cls-18" d="M.558,5.529A14.157,14.157,0,0,1,4.9.453,2.639,2.639,0,0,1,8.884,1.864l.009.027A3.1,3.1,0,0,1,8.728,4.2c-1.2,2.606-.7,7.641-4.562,8.083C-.176,12.783-.614,8.087.558,5.529Z" transform="translate(35.932 0.66)"/>
      <path id="Tracé_22" data-name="Tracé 22" class="cls-21" d="M.962,2.021a.991.991,0,0,0,.966-1.01A.983.983,0,0,0,.971,0H.962A.987.987,0,0,0,0,1.01.987.987,0,0,0,.962,2.021Z" transform="translate(48.083 4.042)"/>
      <path id="Tracé_23" data-name="Tracé 23" class="cls-20" d="M0,3.654A18.552,18.552,0,0,0,1.182,1.3,1.611,1.611,0,0,1,3.019.315,28.551,28.551,0,0,0,15.046.046a2.009,2.009,0,0,1,2.4,1.936l.164,3.29C12.475,6.761,4.058,5.716,0,3.654Z" transform="translate(15.626 28.591)"/>
      <path id="Tracé_24" data-name="Tracé 24" class="cls-22" d="M1.21.035A45.535,45.535,0,0,0,9.2,1.092L9,2.4a2.1,2.1,0,0,1-.268.68L8.62,3.078A46.012,46.012,0,0,1,.714,1.987,1.016,1.016,0,0,1,.033.751.956.956,0,0,1,1.21.035Z" transform="translate(48.391 9.32)"/>
      <path id="Tracé_25" data-name="Tracé 25" class="cls-21" d="M2.227,1.435,1.922,2.941a1.746,1.746,0,0,1-.2.02A1.7,1.7,0,0,1,0,1.277,1.658,1.658,0,0,1,.612,0l.925.272A1.014,1.014,0,0,1,2.227,1.435Z" transform="translate(57.39 5.543)"/>
      <path id="Tracé_26" data-name="Tracé 26" class="cls-23" d="M13.9,10.711a.928.928,0,0,0,.865-.793,1.016,1.016,0,0,0-.688-1.2A26.894,26.894,0,0,1,1.548.311.834.834,0,0,0,.276.279,1.1,1.1,0,0,0,.25,1.7a28.154,28.154,0,0,0,13.443,8.985A.825.825,0,0,0,13.9,10.711Z" transform="translate(33.368 11.49)"/>
      <path id="Tracé_27" data-name="Tracé 27" class="cls-18" d="M1.443,4.042h0A1.481,1.481,0,0,0,2.886,2.526V1.516A1.481,1.481,0,0,0,1.443,0h0A1.481,1.481,0,0,0,0,1.516v1.01A1.481,1.481,0,0,0,1.443,4.042Z" transform="translate(46.169 21.893)"/>
    </g>
    <g id="qr" transform="translate(75.621 126.465)">
      <circle id="Ellipse_1" data-name="Ellipse 1" class="cls-24" cx="83.245" cy="83.245" r="83.245"/>
      <path id="Tracé_28" data-name="Tracé 28" class="cls-25" d="M161.911,173.171A46.415,46.415,0,0,1,156.25,184a48.54,48.54,0,0,1-53.531,18.5,49.071,49.071,0,0,1-21-12.463L63.332,171.645l-2.042-1.96L49.021,157.9a11.161,11.161,0,1,1,0-22.323,11.16,11.16,0,0,1,0-22.319V100.13a11.158,11.158,0,1,1,0-22.316l71.315,34.579,2.762,1.335,3.109,1.508a52.825,52.825,0,0,1,1.386-8.352,12.284,12.284,0,1,1,23.845,5.919,28.173,28.173,0,0,0,3.238,21.5S168.584,154.653,161.911,173.171Z" transform="translate(-25.548 -52.511)"/>
      <g id="Groupe_1" data-name="Groupe 1" transform="translate(17.606 25.301)">
        <path id="Tracé_29" data-name="Tracé 29" class="cls-26" d="M151.344,393.154a49.071,49.071,0,0,1-21-12.463L111.957,362.3l-2.042-1.96,31.874,6.575C122.412,366.917,137.987,384.85,151.344,393.154Z" transform="translate(-91.779 -268.47)"/>
        <path id="Tracé_30" data-name="Tracé 30" class="cls-26" d="M311.691,193.352a3.228,3.228,0,0,1-4.446-1.107,55.723,55.723,0,0,1-7.887-33.578c0-.227.023-.686.074-1.343l3.108,1.505a52.938,52.938,0,0,1,1.389-8.35,12.234,12.234,0,0,1,6.507-8.064,40.92,40.92,0,0,0-4.594,16.442l-.014.25c-.037.426-.065.852-.088,1.274a49,49,0,0,0,4.65,24.023,50.623,50.623,0,0,0,2.408,4.5A3.241,3.241,0,0,1,311.691,193.352Z" transform="translate(-219.488 -121.407)"/>
        <path id="Tracé_31" data-name="Tracé 31" class="cls-26" d="M131.325,112.388v53.892c0,5.511-5.22,9.976-11.667,9.976H78.934l-4.613-4.613L60.01,157.9a11.105,11.105,0,0,1-5.868-1.667l.119-.16a15.641,15.641,0,0,0-.119-18.829h0a11.1,11.1,0,0,1,5.868-1.667,11.1,11.1,0,0,1-5.868-1.667l.758-.944a13.52,13.52,0,0,0,.482-16.295l-1.24-1.746a11.1,11.1,0,0,1,5.868-1.667v-13.13a11.1,11.1,0,0,1-5.868-1.663l1.94-3.274a12.446,12.446,0,0,0-.25-13.1l-1.691-2.619a11.1,11.1,0,0,1,5.868-1.667Z" transform="translate(-54.142 -77.809)"/>
      </g>
      <path id="Tracé_32" data-name="Tracé 32" class="cls-27" d="M72.186,71.566V43.613c0-5.51,5.223-9.979,11.667-9.979H137.7c6.444,0,11.667,4.469,11.667,9.979v92.856c0,5.51-5.223,9.976-11.667,9.976H83.853c-6.444,0-11.667-4.466-11.667-9.976V130.3S72.186,71.566,72.186,71.566Z" transform="translate(-48.713 -22.697)"/>
      <rect id="Rectangle_9" data-name="Rectangle 9" class="cls-28" width="65.458" height="78.426" transform="translate(29.336 28.13)"/>
      <path id="Tracé_33" data-name="Tracé 33" class="cls-29" d="M340.835,326A83.555,83.555,0,0,1,306.4,363.7a82.657,82.657,0,0,1-25.959,9.541L269.483,362.28,323.3,308.463Z" transform="translate(-181.854 -208.159)"/>
      <g id="Groupe_2" data-name="Groupe 2" transform="translate(49.493 18.099)">
        <path id="Tracé_34" data-name="Tracé 34" class="cls-30" d="M174.743,60.87H154.81a2.6,2.6,0,0,1-2.6-2.6h0a2.6,2.6,0,0,1,2.6-2.6h19.933a2.6,2.6,0,0,1,2.6,2.6h0A2.6,2.6,0,0,1,174.743,60.87Z" transform="translate(-152.205 -55.66)"/>
        <circle id="Ellipse_2" data-name="Ellipse 2" class="cls-30" cx="4.915" cy="4.915" r="4.915" transform="translate(7.659 92.139)"/>
      </g>
      <path id="Tracé_35" data-name="Tracé 35" class="cls-31" d="M306.4,438.546a82.657,82.657,0,0,1-25.959,9.541L269.482,437.13l17.75-17.75Z" transform="translate(-181.853 -283.008)"/>
      <g id="Groupe_3" data-name="Groupe 3" transform="translate(34.258 39.535)">
        <rect id="Rectangle_10" data-name="Rectangle 10" class="cls-30" width="4.402" height="4.402" transform="translate(8.149 8.149)"/>
        <rect id="Rectangle_11" data-name="Rectangle 11" class="cls-30" width="4.402" height="4.402" transform="translate(8.149 43.064)"/>
        <path id="Tracé_36" data-name="Tracé 36" class="cls-30" d="M212.73,121.583v20.7h20.7v-20.7ZM228.351,137.2H217.807V126.66h10.544Z" transform="translate(-177.814 -121.583)"/>
        <rect id="Rectangle_12" data-name="Rectangle 12" class="cls-30" width="4.402" height="4.402" transform="translate(43.064 8.149)"/>
        <path id="Tracé_37" data-name="Tracé 37" class="cls-30" d="M188.5,218.268v-4.4h-4.4v8.8h4.4v4.522h4.4v-8.8h-4.4Z" transform="translate(-158.492 -183.858)"/>
        <path id="Tracé_38" data-name="Tracé 38" class="cls-30" d="M249.306,196.644v4.4h8.8v-4.4h-8.8Z" transform="translate(-202.497 -172.236)"/>
        <rect id="Rectangle_13" data-name="Rectangle 13" class="cls-30" width="4.402" height="4.402" transform="translate(25.725 43.424)"/>
        <rect id="Rectangle_14" data-name="Rectangle 14" class="cls-30" width="4.402" height="4.402" transform="translate(21.203 25.606)"/>
        <rect id="Rectangle_15" data-name="Rectangle 15" class="cls-30" width="4.402" height="4.402" transform="translate(51.12 33.917)"/>
        <rect id="Rectangle_16" data-name="Rectangle 16" class="cls-30" width="4.402" height="4.402" transform="translate(51.12 38.317)"/>
        <rect id="Rectangle_17" data-name="Rectangle 17" class="cls-30" width="4.402" height="4.402" transform="translate(33.51 46.811)"/>
        <rect id="Rectangle_18" data-name="Rectangle 18" class="cls-30" width="4.402" height="4.402" transform="translate(33.51 51.211)"/>
        <path id="Tracé_39" data-name="Tracé 39" class="cls-30" d="M244.287,252h-8.8V265.2H248.69V252h-4.4Zm0,8.8h-4.4v-4.4h4.4Z" transform="translate(-193.168 -209.59)"/>
        <path id="Tracé_40" data-name="Tracé 40" class="cls-30" d="M212.147,197.955h-8.8v4.4h4.4v4.4h4.4v4.4h4.4v-8.8h-4.4Z" transform="translate(-171.48 -173.12)"/>
        <path id="Tracé_41" data-name="Tracé 41" class="cls-30" d="M115.508,147.188v4.4h4.4v-9.31h6.142v-20.7h-20.7v20.7h10.154v4.908Zm-5.077-20.529h10.544V137.2H110.431V126.659Z" transform="translate(-105.354 -121.582)"/>
        <path id="Tracé_42" data-name="Tracé 42" class="cls-30" d="M109.756,200.328h-4.4v30.008h20.7v-20.7h-16.3Zm.675,14.387h10.544v10.544H110.431Z" transform="translate(-105.354 -174.722)"/>
        <path id="Tracé_43" data-name="Tracé 43" class="cls-30" d="M188.5,155.444v-8.8h-4.4v13.205h4.4Z" transform="translate(-158.492 -138.492)"/>
      </g>
    </g>
  </g>
</svg>
