<svg xmlns="http://www.w3.org/2000/svg" viewBox="1096.589 466.369 37.631 37.631">
  <defs>
    <style>
      .cls-1 {
        fill: #4caf50;
      }

      .cls-2 {
        fill: #fafafa;
      }
    </style>
  </defs>
  <g id="whatsapp" transform="translate(1096.589 466.369)">
    <path id="Tracé_53" data-name="Tracé 53" class="cls-1" d="M18.82,0h-.009A18.8,18.8,0,0,0,3.582,29.844l-2.345,6.99,7.232-2.312A18.812,18.812,0,1,0,18.82,0Z"/>
    <path id="Tracé_54" data-name="Tracé 54" class="cls-2" d="M129.149,135.052c-.454,1.282-2.256,2.345-3.693,2.655-.983.209-2.267.376-6.59-1.416-5.529-2.291-9.09-7.91-9.368-8.274s-2.234-2.975-2.234-5.675a6.007,6.007,0,0,1,1.924-4.579,2.734,2.734,0,0,1,1.924-.675c.233,0,.442.012.63.021.553.024.83.056,1.195.929.454,1.094,1.559,3.794,1.691,4.071a1.12,1.12,0,0,1,.08,1.018,3.251,3.251,0,0,1-.609.863c-.278.32-.541.564-.818.908-.254.3-.541.619-.221,1.171a16.7,16.7,0,0,0,3.053,3.794,13.833,13.833,0,0,0,4.412,2.721,1.19,1.19,0,0,0,1.326-.209,22.765,22.765,0,0,0,1.47-1.947,1.05,1.05,0,0,1,1.35-.409c.508.176,3.2,1.505,3.749,1.78s.917.409,1.051.642A4.686,4.686,0,0,1,129.149,135.052Z" transform="translate(-99.38 -108.482)"/>
  </g>
</svg>
